# xmcd
#
# Track frame offsets: 
#        150
#        12713
#        26510
#        42243
#        55403
#        71095
#        85910
#        96660
#        109853
#        122513
#        133398
#        148775
#        159813
#        172023
#
# Disc length: 2495 seconds
#
# Revision: 0
# Processed by: cddbd v1.4PL0 Copyright (c) Steve Scherf et al.
# Submitted via: ExactAudioCopy v0.90b4
#
DISCID=cd09bd0e
DTITLE=R.B. Stone - The Drifter's Wind
DYEAR=1994
DGENRE=Country
TTITLE0=There's Pretty Girls Everywhere
TTITLE1=You Ain't Seen The Last Of Me
TTITLE2=Would You
TTITLE3=Oh My Theresa
TTITLE4=Tell Me A Lie
TTITLE5=Before Heaven Flies Away
TTITLE6=The Drifter's Wind
TTITLE7=New World
TTITLE8=Small Town Country Girl
TTITLE9=Lying Out Loud
TTITLE10=Saddle Up Cowboy
TTITLE11=Goodbye Heartache, Hello Pride
TTITLE12=Daddy Hide Your Daughters
TTITLE13=Brand New Eyes
EXTD=
EXTT0=
EXTT1=
EXTT2=
EXTT3=
EXTT4=
EXTT5=
EXTT6=
EXTT7=
EXTT8=
EXTT9=
EXTT10=
EXTT11=
EXTT12=
EXTT13=
PLAYORDER=
